<?xml version="1.0" encoding="UTF-8" standalone="no"?>
<!DOCTYPE svg PUBLIC "-//W3C//DTD SVG 1.1//EN" "http://www.w3.org/Graphics/SVG/1.1/DTD/svg11.dtd">
<svg width="100%" height="100%" viewBox="0 0 481 544" version="1.1" xmlns="http://www.w3.org/2000/svg" xmlns:xlink="http://www.w3.org/1999/xlink" xml:space="preserve" xmlns:serif="http://www.serif.com/" style="fill-rule:evenodd;clip-rule:evenodd;stroke-linecap:round;stroke-linejoin:round;stroke-miterlimit:1.5;">
    <g transform="matrix(1,0,0,1,-1531.666369,-742.944244)">
        <g transform="matrix(1.859112,0,0,1.859112,-1317.662884,-1103.598288)">
            <path d="M1601.691,1240.157C1601.691,1240.157 1550.359,1145.131 1618.801,1073.023C1687.244,1000.914 1729.395,1004.701 1739.797,1013.136C1750.487,1021.804 1731.242,1037.579 1726.353,1065.69C1721.464,1093.8 1726.304,1138.356 1705.576,1168.353C1657.925,1237.312 1601.691,1240.157 1601.691,1240.157Z" style="fill:none;stroke:currentColor;stroke-width:4.5px;"/>
        </g>
        <g transform="matrix(1.859112,0,0,1.859112,-1317.662884,-1103.598288)">
            <path d="M1601.691,1240.157C1601.691,1240.157 1649.488,1172.954 1738.801,1171.673C1828.114,1170.391 1785.567,1289.063 1725.59,1284.449C1665.614,1279.835 1601.691,1240.157 1601.691,1240.157Z" style="fill:none;stroke:currentColor;stroke-width:4.5px;"/>
        </g>
        <g transform="matrix(1.859112,0,0,1.859112,-1317.662884,-1103.598288)">
            <path d="M1601.691,1241.013C1601.691,1241.013 1530.496,1201.838 1533.866,1079.837C1536.369,989.212 1572.776,991.143 1583.211,996.411C1595.757,1002.743 1589.298,1020 1596.181,1034.853C1603.064,1049.705 1622.723,1087.346 1618.343,1113.627C1613.962,1139.909 1601.691,1241.013 1601.691,1241.013Z" style="fill:none;stroke:currentColor;stroke-width:4.5px;"/>
        </g>
    </g>
</svg>
